<svg id="Calque_2" data-name="Calque 2" xmlns="http://www.w3.org/2000/svg" viewBox="0 0 468.83 227.27"><defs><style>.cls-1{isolation:isolate;}.cls-2{fill:#f39422;}.cls-3{fill:#1d1e1b;}.cls-4{fill:#ec606f;}</style></defs><g id="Calque_1" data-name="Calque 1"><g id="Business" class="cls-1"><g class="cls-1"><path class="cls-2" d="M249.7,65.21a9.08,9.08,0,0,1-5-1.2,4.09,4.09,0,0,1-1.62-3.72c0-.12.1-.18.3-.17a6.56,6.56,0,0,1,1.5.32,18.22,18.22,0,0,0,4.13.37,36.84,36.84,0,0,0,9.56-1,27.19,27.19,0,0,0,7.64-3.09,17,17,0,0,0,5.06-4.5A9.09,9.09,0,0,0,273.17,47a5.6,5.6,0,0,0-1.31-4,8.69,8.69,0,0,0-3.59-2.35,22,22,0,0,0-4.87-1.13,51.64,51.64,0,0,0-5.22-.36h-4.5q-1.47,4.83-2.87,9.73T248,58.39a3.79,3.79,0,0,1-2.5-.88,2.55,2.55,0,0,1-1-2.06,5.84,5.84,0,0,1,.33-1.67l.57-1.73c.25-.8.69-2.13,1.33-4s1.4-4.06,2.3-6.56,1.9-5.13,3-7.88,2.21-5.42,3.35-8,2.25-4.94,3.33-7a17.48,17.48,0,0,0-4.25,1.13,19.81,19.81,0,0,0-2.69,1.37,3.09,3.09,0,0,1-1.39.6,1.46,1.46,0,0,1-.75-.28,3.65,3.65,0,0,1-.8-.67,1.18,1.18,0,0,1-.35-.7q3-1.22,6.31-2.17a26.82,26.82,0,0,1,8-.89,31.47,31.47,0,0,1,4.37.41,16.06,16.06,0,0,1,4.54,1.39,9,9,0,0,1,3.49,2.94,8.37,8.37,0,0,1,1.3,5,9.48,9.48,0,0,1-1.35,5,10.78,10.78,0,0,1-3.36,3.36,17.82,17.82,0,0,1-4.47,2.05,29.16,29.16,0,0,1-4.76,1.06,25.17,25.17,0,0,1,7.15,1.39,11.41,11.41,0,0,1,4.09,2.5,7.1,7.1,0,0,1,1.84,3,9.86,9.86,0,0,1,.43,3,11.48,11.48,0,0,1-1.9,6.27,17.93,17.93,0,0,1-4.83,4.84,31.17,31.17,0,0,1-6.48,3.4,38.5,38.5,0,0,1-6.93,2A31.47,31.47,0,0,1,249.7,65.21Zm4.36-27.42a41.9,41.9,0,0,0,6.59-.64,22.65,22.65,0,0,0,6-1.9,12.21,12.21,0,0,0,4.41-3.53,8.91,8.91,0,0,0,1.74-5.49,7.07,7.07,0,0,0-1.38-4.83,7.83,7.83,0,0,0-3.74-2.4,17.66,17.66,0,0,0-4.88-.75h-.57a2.91,2.91,0,0,0-.57.06,73,73,0,0,0-4.09,9.17Q255.71,32.48,254.06,37.79Z"/><path class="cls-2" d="M285.27,62.39A3.76,3.76,0,0,1,282,60.5a7.44,7.44,0,0,1-1.15-4.25,16.7,16.7,0,0,1,.64-4A40.32,40.32,0,0,1,283,47.77a21.87,21.87,0,0,1,1.8-3.63c.62-1,1.15-1.42,1.59-1.42a3,3,0,0,1,1,.35,3.58,3.58,0,0,1,1.19.89,26.73,26.73,0,0,0-1.68,3.09,36.16,36.16,0,0,0-1.75,4.47,15.76,15.76,0,0,0-.8,4.43c0,.32,0,.81.1,1.47A4.29,4.29,0,0,0,285,59.2a1.56,1.56,0,0,0,1.42.81,3.48,3.48,0,0,0,2.36-1.13,18.56,18.56,0,0,0,2.49-3c.84-1.23,1.65-2.55,2.43-4s1.52-2.79,2.2-4.1,1.25-2.4,1.71-3.28c.24,0,.59.13,1.05.26a6.65,6.65,0,0,1,1.25.5.93.93,0,0,1,.55.85,7.26,7.26,0,0,1-.62,1.58c-.42.9-.91,2-1.47,3.28s-1,2.59-1.48,3.9a12.53,12.53,0,0,0-.66,3.47,3.07,3.07,0,0,0,.42,1.75,1.71,1.71,0,0,0,1.52.69,6.1,6.1,0,0,0,3.08-1.09A16.59,16.59,0,0,0,305,56.45a24,24,0,0,0,3.39-5.19l.77.55a21,21,0,0,1-3.4,5.68,17.25,17.25,0,0,1-4.38,3.79,8.6,8.6,0,0,1-4.47,1.31,4.58,4.58,0,0,1-2.48-.65,3.27,3.27,0,0,1-1.29-1.64,6.16,6.16,0,0,1-.35-2.22,9.25,9.25,0,0,1,.14-1.47q.13-.75.33-1.53a31.11,31.11,0,0,1-2.4,3.65,12.9,12.9,0,0,1-2.69,2.69A4.79,4.79,0,0,1,285.27,62.39Z"/><path class="cls-2" d="M315.67,64.17a7.38,7.38,0,0,1-4.45-1.31,6.8,6.8,0,0,1-2.29-3.07,9.77,9.77,0,0,1-.62-3.61,6.18,6.18,0,0,1,.52-2.75A3.65,3.65,0,0,1,310,52a6.13,6.13,0,0,1,1.33-.7,2.58,2.58,0,0,0,.88-.47,40.75,40.75,0,0,0,3.37-4.08,32.08,32.08,0,0,0,2.71-4.51l0-.73a5.06,5.06,0,0,1,.8-3.13,2.14,2.14,0,0,1,1.61-.91,1,1,0,0,1,.71.26.7.7,0,0,1,.23.54,4.33,4.33,0,0,1-.19,1,6.39,6.39,0,0,0-.21,1.68,13.66,13.66,0,0,0,.7,4.3q.75,2.33,1.48,4.88a18.18,18.18,0,0,1,.69,5.33,15.3,15.3,0,0,1-.11,1.53,9.6,9.6,0,0,1-.3,1.4,8.3,8.3,0,0,0,4-1.82,15.57,15.57,0,0,0,3.69-4.83l.53.61a10.19,10.19,0,0,1-3.51,5,11.09,11.09,0,0,1-5,2,7,7,0,0,1-3.1,3.73A9.15,9.15,0,0,1,315.67,64.17Zm.16-2.1a5.45,5.45,0,0,0,1.93-.45,3.69,3.69,0,0,0,1.9-2.43,10.42,10.42,0,0,1-4.44-2,12.29,12.29,0,0,1-2.86-3q-1.32,0-1.35,2.07a6.77,6.77,0,0,0,1.22,4A4.21,4.21,0,0,0,315.83,62.07ZM320,58.24a9.76,9.76,0,0,0,.2-1.26q.07-.66.09-1.56a23.81,23.81,0,0,0-.59-5.62c-.43-1.87-.79-3.62-1.08-5.27-.95,1.51-1.94,2.94-3,4.3a29.79,29.79,0,0,1-3,3.4,11.29,11.29,0,0,0,2.73,3.65A10.09,10.09,0,0,0,320,58.24Z"/><path class="cls-2" d="M336.75,63a4.09,4.09,0,0,1-3.45-1.53,5.66,5.66,0,0,1-1.08-3.58,15.92,15.92,0,0,1,.57-3.48,40.38,40.38,0,0,1,1.43-4.38,30.57,30.57,0,0,1,2-4.32,14.78,14.78,0,0,1,2.43-3.29,3.55,3.55,0,0,1,2.48-1.25,1.37,1.37,0,0,1,.92.35,1.22,1.22,0,0,1,.38,1,5.88,5.88,0,0,1-1,2.33c-.64,1.07-1.39,2.3-2.26,3.68A31.23,31.23,0,0,0,337,52.92a11.8,11.8,0,0,0-1,4.39,4.2,4.2,0,0,0,.67,2.89,3,3,0,0,0,2.21.76,6.81,6.81,0,0,0,4.39-2,24.47,24.47,0,0,0,5-7.05l.53.61a17.3,17.3,0,0,1-5.15,7.83A10.47,10.47,0,0,1,336.75,63Zm7.67-27.35a3.07,3.07,0,0,1-1.7-.51,1.64,1.64,0,0,1-.72-1.51,2.6,2.6,0,0,1,1.5-2.17,5.43,5.43,0,0,1,2.93-.88,2.3,2.3,0,0,1,1.43.44,1.72,1.72,0,0,1,.52,1.45,3,3,0,0,1-1.27,2.17A4.05,4.05,0,0,1,344.42,35.67Z"/><path class="cls-2" d="M368.62,63.21a4.24,4.24,0,0,1-3.13-1.14,3.77,3.77,0,0,1-1-2.78,8.61,8.61,0,0,1,.49-2.63c.32-.91.62-1.86.92-2.83a10.48,10.48,0,0,0,.47-2.85,3.07,3.07,0,0,0-.65-2.32A2.44,2.44,0,0,0,364,48a6.12,6.12,0,0,0-3.81,1.47,21.55,21.55,0,0,0-3.78,3.84q-1.85,2.34-3.45,4.83c-1.07,1.66-2,3.15-2.83,4.45a5.14,5.14,0,0,1-1.83-.36,2.92,2.92,0,0,1-1.33-1,8.33,8.33,0,0,1,.66-1.85c.44-1,1-2.31,1.54-3.82s1.11-3.06,1.58-4.65a16.82,16.82,0,0,0,.73-4.37,4.21,4.21,0,0,1,1.15-.82,3.4,3.4,0,0,1,1.63-.39c1.08,0,1.61.54,1.59,1.58a15.48,15.48,0,0,1-.59,3.21q-.57,2.23-1.46,4.68A58.78,58.78,0,0,1,357.53,50a22.64,22.64,0,0,1,4.36-4,7.86,7.86,0,0,1,4.59-1.55,3.7,3.7,0,0,1,3.36,1.74,6.92,6.92,0,0,1,1,3.74,9.62,9.62,0,0,1-.66,3.44c-.42,1-.85,2.07-1.28,3a7.3,7.3,0,0,0-.68,3,2.42,2.42,0,0,0,.48,1.78,1.76,1.76,0,0,0,1.28.53,4.41,4.41,0,0,0,3-1.36,19.21,19.21,0,0,0,3-3.52,39.52,39.52,0,0,0,2.57-4.34l.64.79a30.38,30.38,0,0,1-2.9,5.17A14.05,14.05,0,0,1,372.78,62,7.08,7.08,0,0,1,368.62,63.21Z"/><path class="cls-2" d="M386,64.94a6.62,6.62,0,0,1-7.2-7.08,14,14,0,0,1,1.44-5.68,24,24,0,0,1,3.7-5.58,21,21,0,0,1,5-4.21,10.27,10.27,0,0,1,5.37-1.55,4.78,4.78,0,0,1,2.54.76c.77.49,1.14,1.48,1.12,3a7.57,7.57,0,0,1-1.43,4.27,14,14,0,0,1-3.6,3.51,21.19,21.19,0,0,1-4.84,2.46A19.39,19.39,0,0,1,382.91,56a10.38,10.38,0,0,0-.2,1.13,9.49,9.49,0,0,0-.08,1,8,8,0,0,0,.18,1.81,4.64,4.64,0,0,0,.72,1.66A3.56,3.56,0,0,0,385,62.76a5.58,5.58,0,0,0,2.31.46,10,10,0,0,0,5.12-1.38,19.46,19.46,0,0,0,4.75-3.79,26.19,26.19,0,0,0,3.75-5.22l.71.55a22.24,22.24,0,0,1-4.22,6.17,19.42,19.42,0,0,1-5.47,4A12.86,12.86,0,0,1,386,64.94Zm-2.77-10.13a26.59,26.59,0,0,0,3.69-1.53,26,26,0,0,0,4-2.42,14.72,14.72,0,0,0,3.17-3.13,6.19,6.19,0,0,0,1.29-3.64,1.78,1.78,0,0,0-.22-1c-.15-.24-.49-.37-1-.38A5.54,5.54,0,0,0,391,43.75a15.68,15.68,0,0,0-3.17,2.86,26.1,26.1,0,0,0-2.77,3.91A20,20,0,0,0,383.23,54.81Z"/><path class="cls-2" d="M408.13,65.74a7.29,7.29,0,0,1-4.45-1.31,6.72,6.72,0,0,1-2.29-3.07,10,10,0,0,1-.63-3.61,6.31,6.31,0,0,1,.53-2.75,3.71,3.71,0,0,1,1.19-1.42,6.18,6.18,0,0,1,1.34-.7,2.6,2.6,0,0,0,.87-.46,38.3,38.3,0,0,0,3.37-4.09,32.14,32.14,0,0,0,2.72-4.51V43.1A5.13,5.13,0,0,1,411.6,40a2.07,2.07,0,0,1,1.6-.9,1,1,0,0,1,.72.25.73.73,0,0,1,.23.54,3.94,3.94,0,0,1-.2,1,7.36,7.36,0,0,0-.21,1.68,13.64,13.64,0,0,0,.71,4.3q.75,2.33,1.48,4.89a18.12,18.12,0,0,1,.69,5.32,12.8,12.8,0,0,1-.12,1.53,9.35,9.35,0,0,1-.29,1.4,8.39,8.39,0,0,0,4-1.82,15.41,15.41,0,0,0,3.68-4.83l.53.61a10.12,10.12,0,0,1-3.5,5,11,11,0,0,1-5,2,7,7,0,0,1-3.09,3.73A9.15,9.15,0,0,1,408.13,65.74Zm.15-2.1a5.36,5.36,0,0,0,1.93-.45,3.64,3.64,0,0,0,1.9-2.43,10.32,10.32,0,0,1-4.43-2,12.29,12.29,0,0,1-2.86-3.05c-.88,0-1.33.72-1.36,2.08a6.82,6.82,0,0,0,1.23,4A4.18,4.18,0,0,0,408.28,63.64Zm4.15-3.83a11.86,11.86,0,0,0,.2-1.26q.08-.66.09-1.56a23.31,23.31,0,0,0-.6-5.62c-.42-1.87-.79-3.62-1.08-5.27-.94,1.51-1.94,2.94-3,4.3a29.79,29.79,0,0,1-3,3.4,11.29,11.29,0,0,0,2.73,3.65A10.09,10.09,0,0,0,412.43,59.81Z"/><path class="cls-2" d="M431.17,66.13a7.29,7.29,0,0,1-4.45-1.31,6.72,6.72,0,0,1-2.29-3.07,10,10,0,0,1-.63-3.61,6.34,6.34,0,0,1,.53-2.75A3.79,3.79,0,0,1,425.52,54a6.66,6.66,0,0,1,1.34-.7,2.43,2.43,0,0,0,.87-.46,38.3,38.3,0,0,0,3.37-4.09,31.58,31.58,0,0,0,2.72-4.51v-.72a5.13,5.13,0,0,1,.81-3.14,2.07,2.07,0,0,1,1.6-.9,1,1,0,0,1,.72.25.79.79,0,0,1,.23.54,3.86,3.86,0,0,1-.2,1,7.36,7.36,0,0,0-.21,1.68,13.64,13.64,0,0,0,.71,4.3q.75,2.32,1.48,4.89a18.12,18.12,0,0,1,.69,5.32,12.8,12.8,0,0,1-.12,1.53,9.76,9.76,0,0,1-.29,1.41,8.5,8.5,0,0,0,4-1.83,15.41,15.41,0,0,0,3.68-4.83l.53.61a10.12,10.12,0,0,1-3.5,4.95,11,11,0,0,1-5,2.05A7,7,0,0,1,435.84,65,9,9,0,0,1,431.17,66.13Zm.15-2.1a5.41,5.41,0,0,0,1.93-.45,3.62,3.62,0,0,0,1.9-2.42,10.45,10.45,0,0,1-4.43-2.06,12.1,12.1,0,0,1-2.86-3.05c-.88,0-1.33.72-1.36,2.08a6.8,6.8,0,0,0,1.23,4A4.15,4.15,0,0,0,431.32,64Zm4.15-3.83a11.86,11.86,0,0,0,.2-1.26q.07-.64.09-1.56a23.36,23.36,0,0,0-.6-5.62c-.42-1.86-.79-3.62-1.08-5.27-.94,1.51-1.94,2.94-3,4.3a29,29,0,0,1-3,3.4,11.19,11.19,0,0,0,2.73,3.65A10.09,10.09,0,0,0,435.47,60.2Z"/></g></g><g id="Plan_de_travail_1" data-name="Plan de travail 1"><path id="Path_166" data-name="Path 166" class="cls-3" d="M33.32,155.05c-2.51-.18-4.17-.78-4.94-1.79a5.91,5.91,0,0,1-1.18-3.78,25,25,0,0,1,.92-6.13c.61-2.37,1.5-4.92,2.42-7.63s2.09-5.39,3.29-8l-2.47.27-3.42.31a26.47,26.47,0,0,0-2.81.38,4.68,4.68,0,0,1,1.68-3.33,9.08,9.08,0,0,1,3.78-1.84,24.67,24.67,0,0,1,5-.6q1.84-5,3.81-9.67t4-8.63c-.33,0-.67-.08-1-.1H40.79a20.19,20.19,0,0,0-6.69.86,5.82,5.82,0,0,0-3.27,2.55,8.3,8.3,0,0,0-.9,4.06,13.1,13.1,0,0,0,.35,3.12,20.7,20.7,0,0,0,1.08,3.07A8.24,8.24,0,0,1,26.62,116a5.57,5.57,0,0,1-1.49-3.88,8.74,8.74,0,0,1,2.74-6.32,18.7,18.7,0,0,1,7.46-4.33,32.58,32.58,0,0,1,10.46-1.58,57.92,57.92,0,0,1,7.56.48,59.35,59.35,0,0,0,7,.48,24.36,24.36,0,0,0,3.42-.24,34.78,34.78,0,0,0,3.78-.8A26.87,26.87,0,0,1,62,104.7a8.68,8.68,0,0,1-4.24,1.24,28.11,28.11,0,0,1-4.48-.45c-1.81-.3-3.75-.52-5.84-.66-.63,1.5-1.28,3.17-2,5.1s-1.49,4-2.17,6.18-1.49,4.48-2.25,6.81c2.48.2,4.7.39,6.71.63s4.2.39,6.63.48a9.61,9.61,0,0,1-1.75,1.74,5.79,5.79,0,0,1-2.36,1,35.47,35.47,0,0,1-4,.4q-2.54.13-6.58.2c-.39,1.38-.8,2.78-1.21,4.2s-.81,2.65-1.11,3.65c-.17.63-.38,1.24-.61,1.85a102.58,102.58,0,0,0-2.66,10.77,42.1,42.1,0,0,0-.78,7.26Z"/><path id="Path_167" data-name="Path 167" class="cls-3" d="M56.77,155.12a6,6,0,0,1,2-4.3,9.46,9.46,0,0,1,4.48-1.76,39.35,39.35,0,0,1,5.84-.4,45.45,45.45,0,0,0,2.36-6.3c.79-2.45,1.49-5.08,2.28-7.87s1.5-5.65,2.14-8.56,1.34-5.74,2-8.47S79,112.25,79.59,110s1.12-4.1,1.65-5.57q-3.63,0-6.46.27c-1.86.14-3.64.33-5.3.55s-3.37.51-5.13.83a6.89,6.89,0,0,1,4.48-4.95,31.68,31.68,0,0,1,11.32-1.5q3.78,0,7.84.28c2.7.2,5.21.39,7.47.62s4.06.43,5.34.62a10.73,10.73,0,0,1-4.55,2.7,16,16,0,0,1-3.7.53H84.91c-.33,1.49-.7,3.45-1.1,5.7s-.85,4.65-1.35,7.22-1,5.13-1.49,7.7-1,5-1.42,7.19-.91,4.08-1.29,5.54a44.57,44.57,0,0,1-2.18,6.65,13.12,13.12,0,0,1-3,4.48c2.52.18,5.06.42,7.63.68s5.39.47,8.47.56a13.54,13.54,0,0,1-5.41,3.2,18.19,18.19,0,0,1-4.21.65h-8c-2.12,0-3.94,0-5.51.14s-3.08.19-4.48.39S58.58,154.83,56.77,155.12Z"/><path id="Path_168" data-name="Path 168" class="cls-3" d="M109.21,155.05q1.08-3.45,2.42-7.47t3.14-9.63q1.8-5.53,4.14-13.18t5.41-18.07a8.32,8.32,0,0,1,.3-1,6.78,6.78,0,0,0,.2-1.62,1.2,1.2,0,0,0-.17-.76,1,1,0,0,0-.75-.21,4.51,4.51,0,0,0-2.88,1.18,12.36,12.36,0,0,0-2.5,3,15.89,15.89,0,0,0-1.72,3.66,11.57,11.57,0,0,0-.6,3.4,7.88,7.88,0,0,0,.7,3.18,6.13,6.13,0,0,1-4.48-1.27,4.32,4.32,0,0,1-1.21-3.21,8.85,8.85,0,0,1,1.5-4.72,19.4,19.4,0,0,1,3.81-4.33,22.64,22.64,0,0,1,4.85-3.17A11,11,0,0,1,126,99.56a5.33,5.33,0,0,1,4.12,1.75,13.47,13.47,0,0,1,2.62,4.78,48.56,48.56,0,0,1,1.75,6.91q.72,3.85,1.36,8.12c.57,3.67,1,6.58,1.35,8.76s.61,3.92.82,5.2.4,2.36.57,3.23.34,1.87.53,3c.57-2.2,1.15-4.48,1.75-7s1.2-4.94,1.82-7.47,1.21-5,1.81-7.39,1.21-4.66,1.82-6.77,1.22-4,1.82-5.62a23.24,23.24,0,0,1,1.74-3.88,11.31,11.31,0,0,1,2.07-2.45,5.35,5.35,0,0,1,3.75-1.27q-1.25,3.07-2.79,7.66t-3.09,9.92q-1.5,5.33-3,10.86c-1,3.68-1.88,7.26-2.64,10.74s-1.38,6.62-1.83,9.45a47.68,47.68,0,0,0-.67,7,7.17,7.17,0,0,1-4.31-1.21,7.84,7.84,0,0,1-2.53-4.71c-.19-.77-.48-2.09-.85-3.92s-.82-4-1.28-6.5-1-5.13-1.5-7.88-1-5.45-1.49-8.08-.9-5-1.29-7.08-.68-3.69-.92-4.79Q124.26,122.18,122,130t-4,12.73a66.89,66.89,0,0,1-3,7.6,10.88,10.88,0,0,1-2.72,3.72A4.84,4.84,0,0,1,109.21,155.05Z"/><path id="Path_169" data-name="Path 169" class="cls-3" d="M173.68,155.05a17.28,17.28,0,0,1-4.74-.66,7.45,7.45,0,0,1-3.88-2.78,41.74,41.74,0,0,1,1-4.82c.56-2.1,1.23-4.5,2-7.19s1.65-5.45,2.57-8.29,1.79-5.55,2.67-8.15,1.67-4.87,2.35-6.8,1.19-3.36,1.49-4.24c.14-.36.37-.91.7-1.65a17,17,0,0,1,1.29-2.27,8,8,0,0,1,1.82-2,3.51,3.51,0,0,1,2.24-.8,5.23,5.23,0,0,1,2.72,1q-2.25,4.82-4.48,10.7c-1.5,3.91-3,8-4.28,12.11s-2.58,8.18-3.7,12.1-2,7.47-2.74,10.77a7.28,7.28,0,0,0,1.61.31c.69,0,1.34.1,2,.1a19.17,19.17,0,0,0,8.9-2.16,30.53,30.53,0,0,0,7.72-5.78,42.09,42.09,0,0,0,6.17-8.13,43.24,43.24,0,0,0,4.06-9.24,31.51,31.51,0,0,0,1.49-9.09,18.22,18.22,0,0,0-2-9,11.89,11.89,0,0,0-5.38-5,18.26,18.26,0,0,0-7.84-1.62A20.56,20.56,0,0,0,179.1,104a14.24,14.24,0,0,0-5.81,4.39,10.38,10.38,0,0,0-2.11,6.37,10,10,0,0,0,.15,1.63,6.68,6.68,0,0,0,.5,1.67,6.16,6.16,0,0,1-4.38-1.27,4.17,4.17,0,0,1-1.31-3.11,8.23,8.23,0,0,1,1.8-4.89,18.73,18.73,0,0,1,5-4.64,28.86,28.86,0,0,1,7.47-3.36,32.24,32.24,0,0,1,9.26-1.27,21.21,21.21,0,0,1,11.2,2.57,15,15,0,0,1,6.08,6.94,24.13,24.13,0,0,1,1.9,9.74,33.08,33.08,0,0,1-1.95,11.32,37.68,37.68,0,0,1-5.43,9.94,39.83,39.83,0,0,1-8,7.91,38,38,0,0,1-9.62,5.23,29.87,29.87,0,0,1-10.2,1.85Z"/><path id="Path_170" data-name="Path 170" class="cls-3" d="M213.52,164.55a4.17,4.17,0,0,1-1.49-1.34,3,3,0,0,1-.51-1.69,8.75,8.75,0,0,1,.64-3,10.07,10.07,0,0,1,1.67-2.85,3,3,0,0,1,2.19-1.2,2.22,2.22,0,0,1,1.6.69,2.19,2.19,0,0,1,.67,1.58,18,18,0,0,0-2.63,3.57C215.12,161.43,214.37,162.85,213.52,164.55Z"/><path id="Path_171" data-name="Path 171" class="cls-4" d="M238.36,149.49a13.77,13.77,0,0,1-7.33-2,14.29,14.29,0,0,1-5.35-6,20.29,20.29,0,0,1-2-9.32,35.57,35.57,0,0,1,1.72-10.73,47.73,47.73,0,0,1,11.54-19.12,33.11,33.11,0,0,1,8.16-6.09A18.57,18.57,0,0,1,253.76,94a9.54,9.54,0,0,1,5,1.13,6.56,6.56,0,0,1,2.68,3,9.72,9.72,0,0,1,.82,4,13.84,13.84,0,0,1-.88,4.81,11.14,11.14,0,0,1-2.43,4,4.58,4.58,0,0,1-3.38,1.58A2.66,2.66,0,0,1,254,112a5,5,0,0,1-1.49-1.8,9.91,9.91,0,0,0,2.39-2.4,20.36,20.36,0,0,0,2.37-3.76,8.68,8.68,0,0,0,1-3.73,3.19,3.19,0,0,0-.9-2.32,3.9,3.9,0,0,0-3-.93,11.73,11.73,0,0,0-6.59,2.3,30.49,30.49,0,0,0-6.42,6.16,52.18,52.18,0,0,0-5.51,8.53A51.58,51.58,0,0,0,232,123.7a33.43,33.43,0,0,0-1.49,9.32,15,15,0,0,0,2.82,9.73,8.38,8.38,0,0,0,6.72,3.47,8.94,8.94,0,0,0,5.45-1.85,17.28,17.28,0,0,0,4.35-4.71,27.58,27.58,0,0,0,3-6.36,30.29,30.29,0,0,0,1.42-6.74c-1.22-.23-2.44-.41-3.68-.52s-2.57-.16-3.95-.16h-2.27l-2.42.1a6.46,6.46,0,0,1,2-3.54,5.61,5.61,0,0,1,3.8-1.08A15,15,0,0,1,252,122c1.5.45,2.92.91,4.48,1.42a44.53,44.53,0,0,0,4.38,1.24l-.72,2.12c-.85,2.53-1.49,4.63-2.09,6.3a42.36,42.36,0,0,0-1.25,4.26,21.27,21.27,0,0,0-.57,3.17,24.78,24.78,0,0,0-.15,3c0,.92,0,1.87.08,2.86s.09,2.2.14,3.61a5.73,5.73,0,0,1-3.18-1.21,4.16,4.16,0,0,1-1.34-2.16,8.91,8.91,0,0,1-.33-2.4v-.69a4,4,0,0,1,0-.69,22,22,0,0,1-5.74,4.86A14.22,14.22,0,0,1,238.36,149.49Z"/><path id="Path_172" data-name="Path 172" class="cls-4" d="M287.66,149.49a14.18,14.18,0,0,1-7.56-2.09,14.9,14.9,0,0,1-5.41-6,19.75,19.75,0,0,1-2-9.22,35.24,35.24,0,0,1,1.75-10.68,47.31,47.31,0,0,1,4.69-10.32,45,45,0,0,1,7-8.8,33.62,33.62,0,0,1,8.51-6.12,20.77,20.77,0,0,1,9.31-2.24,12.33,12.33,0,0,1,2.1.28A5.41,5.41,0,0,1,308.79,96l-1-.1h-1.11a14.63,14.63,0,0,0-7.47,2.24,31.54,31.54,0,0,0-7.2,6,46,46,0,0,0-6.09,8.56,49.89,49.89,0,0,0-4.24,9.95,34.11,34.11,0,0,0-1.57,10,21.64,21.64,0,0,0,1,6.68,10.72,10.72,0,0,0,3.15,5.06,8.63,8.63,0,0,0,5.84,1.88,12.88,12.88,0,0,0,7.33-2.27,24.22,24.22,0,0,0,6.2-6.08,42.75,42.75,0,0,0,4.78-8.53,53.94,53.94,0,0,0,3.06-9.71,44.84,44.84,0,0,0,1.08-9.53,36.05,36.05,0,0,0-.29-4.28,15,15,0,0,0-1-4c-.44-1.11-1.1-1.66-1.95-1.66a3.88,3.88,0,0,0-2.63,1.5,20.85,20.85,0,0,0-2.8,3.74,39.33,39.33,0,0,0-2.37,4.78,26.27,26.27,0,0,0-1.49,4.49,6.68,6.68,0,0,1-3.45-1.5,3.35,3.35,0,0,1-1-2.47,8.22,8.22,0,0,1,1.36-4.13,20.9,20.9,0,0,1,3.52-4.38,23.07,23.07,0,0,1,4.58-3.46,8.9,8.9,0,0,1,4.48-1.38,4.5,4.5,0,0,1,3.45,1.5,10.29,10.29,0,0,1,2,3.82,27.4,27.4,0,0,1,1,5c.16,1.6.24,3.21.24,4.82a44.18,44.18,0,0,1-1.78,12.83,38.36,38.36,0,0,1-4.81,10.29,36.14,36.14,0,0,1-6.78,7.56,28.71,28.71,0,0,1-7.69,4.68A20.36,20.36,0,0,1,287.66,149.49Z"/><path id="Path_173" data-name="Path 173" class="cls-3" d="M163.59,196.56a7.67,7.67,0,0,1-1.93,5.75,8.09,8.09,0,0,1-6,1.95h-3.56V189.17h4.08a6.6,6.6,0,0,1,7.38,7.47Zm-1.15,0a5.78,5.78,0,0,0-4.95-6.5,6,6,0,0,0-1.52,0h-2.78V203.3h2.5c4.48,0,6.75-2.21,6.75-6.69Z"/><path id="Path_174" data-name="Path 174" class="cls-3" d="M178.08,204.26H167.63v-.79l8.83-13.31H168v-1h9.85V190L169,203.3h9.1Z"/></g></g></svg>