<svg xmlns="http://www.w3.org/2000/svg" xmlns:xlink="http://www.w3.org/1999/xlink" viewBox="0 0 321.12 465.12"><defs><style>.cls-1{fill:#1d1d1b;}.cls-2{fill:#e43923;}.cls-3{fill:url(#Dégradé_sans_nom_7);}.cls-4{fill:#f39422;}</style><linearGradient id="Dégradé_sans_nom_7" x1="52.44" y1="201.08" x2="301.08" y2="201.08" gradientUnits="userSpaceOnUse"><stop offset="0" stop-color="#f39422"/><stop offset="1" stop-color="#e43923"/></linearGradient></defs><g id="text"><path class="cls-1" d="M72.51,341.46c-1,.3-.85.45-1.62,1a10.49,10.49,0,0,1-3.62,1.27,68.11,68.11,0,0,1-11.93,2.38,21.42,21.42,0,0,0-3.16.37c-1,.29-.77.15-1.15,1.26l-.62,1.64c-.69,2.15-1.31,4.38-2,6.61a35.31,35.31,0,0,1-2.54,6.39c-.31.45-1.23,3.35-1.39,3.35v-.22l-.23.59c.39-.67.08.89.08,1,2.62-.23,5.16-.45,7.78-.6,2.46-.22,4.92.15,7.39,0,.15,0,1.31-.89,1,.52s-3.08,1.19-4.08,1.41a19.75,19.75,0,0,1-2.7,1c-1.23.3-2.38.45-3.62.74a22.42,22.42,0,0,0-3,.45,5.87,5.87,0,0,1-2.31.74c-1.08.08-1.85,0-2.39,1s-.46,2.6-.84,3.71c-.16.38-1.93,5.5-2.39,5.43-.15,0,.15-.52.08-.59-.31.66-.54,1.41-.77,2l.31-.29c.07.07-2.85,8.84-3.08,9.58-.93,2.68-1.31,6-3.16,8-.46.52.38.44-.77.81s-3.39-.81-4.39-1.48a4.93,4.93,0,0,1-2.31-3.2c-.15-1.26.46-1.56.85-2.45l-.31.3c-.23,0,.92-3.13,1.23-3.13a3.43,3.43,0,0,0-.08.38l2.47-6a18.77,18.77,0,0,1-1.16,2.45c.08,0,5.32-13.08,5.78-14.27-1.77.07-5.62-1.56-3.62-3.64a2.92,2.92,0,0,1,1.69-.6l2.31-.37c1.54-.37,1.54-.52,2-1.93.62-1.79,1.24-3.5,2-5.28,1.31-3,3.15-6,4.23-8.84l-.46.59a22.38,22.38,0,0,1,.85-3c.46-1.12.77-2.16,1.15-3.2-2.39.15-8.7,0-7.39-3.94.54-1.48,2.08-1.41,3.46-1.48,1.08-.08,2.08-.08,3.16-.23a7.22,7.22,0,0,0,2.16-.22c.84-.22.84-.08,1.15-1a12.55,12.55,0,0,1,1-2.83c1.77-2.82,5.78.9,5.7,3.2,4.54-.74,9.39-.67,14-1.26,2.31-.3,4.7-.6,7.09-1a12.52,12.52,0,0,0,2.92-.52C78.59,338.64,73.05,341.31,72.51,341.46ZM33.16,375.73l1-2.31A7.76,7.76,0,0,0,33.16,375.73Zm7.55-3v-.07c-2.16,5.57-4.62,11.07-6.54,16.65.92-2.45,2.31-4.83,3.31-7.28,1.15-3.05,2.23-6.17,3.23-9.22C40.63,373,40.63,373.05,40.71,372.75Zm0-.07c0-.07,0-.07.08-.15v-.07A.26.26,0,0,0,40.71,372.68Zm.15-.37v-.08a.3.3,0,0,0-.07.23A.25.25,0,0,1,40.86,372.31Z"/><path class="cls-1" d="M104.46,342.35c-1.23.08-1.54.67-3,1s-2.77.6-4.16.82a9.24,9.24,0,0,0-1.54.15c-.54.44,0,.59-.07,1a29.31,29.31,0,0,1-2.39,4.83c-1.46,2.68-2.77,5.35-4.16,8.1-1.31,2.45-2,5.05-3.31,7.58-1.46,2.83-2.69,5.72-3.93,8.62-1,2.23-1.46,4.54-2.38,6.84a100.46,100.46,0,0,0-3.78,10.56,66.77,66.77,0,0,1,10.94-.45,8.93,8.93,0,0,0,1.46.07c.31,0,.23-.44.54-.37a.69.69,0,0,1,.62.75c0,1.19-2.7,1.48-3.55,1.48a6,6,0,0,0-1.38.23,5.52,5.52,0,0,1-1.46.74l-4,.82c-2.15.44-3.85,1-6.08,1.26-1.23.15-2.46.45-3.7.59a16.26,16.26,0,0,0-2,.75c-1.92.59-5.31,1.26-7.16.22-1.39-.82-1.92-2.68-.31-3.49a14.35,14.35,0,0,1,3.08-.6,58,58,0,0,0,7.47-1.34c-1.54-3.27.39-6.83,1.54-9.95a51.33,51.33,0,0,1,2.46-5.65c.85-1.86,1.31-3.79,2-5.65,1.61-4.31,3.77-8.48,5.69-12.64s3.85-8.47,5.93-12.63a10.8,10.8,0,0,0-2,.74,15.4,15.4,0,0,1-4.23.67c-1.7.07-4.85-.89-3.93-3.12a1.47,1.47,0,0,1,1-.89,12.25,12.25,0,0,1,3.31-.6,28.16,28.16,0,0,1,4.31-.74,13.87,13.87,0,0,0,2.93-.6c1.08-.29,1-.29,1.62-1a4.19,4.19,0,0,0,.77-1.19.37.37,0,0,1,0-.52,1.82,1.82,0,0,1,1.38-.59,5.36,5.36,0,0,1,3.77,1.41c.62.52.62.82,1.47,1a13.13,13.13,0,0,0,1.61-.08,37.18,37.18,0,0,1,5.78-.07,8.93,8.93,0,0,0,1.46.07c.31,0,.16-.44.46-.37s.62.15.7.52v.08C108.47,342.06,105.31,342.28,104.46,342.35ZM86.29,356.7a7,7,0,0,0-.77,1c-.46.89-.69,1.78-1.08,2.68l1.08-1.64A21.87,21.87,0,0,0,86.29,356.7ZM90.22,351a16.59,16.59,0,0,0-1.85,2.45,19.7,19.7,0,0,0-.54,2.9,16,16,0,0,1,.85-1.71A21.82,21.82,0,0,0,90.22,351Z"/><path class="cls-1" d="M114.09,365l-2,2.68-2.77,3.64A180.91,180.91,0,0,1,126,350c3.54-3.72,12.55-12.86,16-3.86v.14c.08.23.08.3.16.38,2.31,7.21-3.7,14.86-6.93,21,.23-.3.38-.52.54-.52-.08,0-2.16,4.83-2.39,5.35-.85,1.78-1.69,3.71-2.62,5.57-2.08,4.39-4.16,8.77-6,13.31-1.39,3.34-3.32,7.35-3.32,11.14.08,3.35,4,3.28,6.63,3a22.79,22.79,0,0,0,3.23-.82c.69-.22,2.16-1.11,2.85-1,1.62.15-1.08,3.05-1.46,3.5-2.24,2.15-6.09,4.09-9.32,3s-5.47-4.75-6.54-7.73a19.67,19.67,0,0,1-.62-11.37c.85-3.34,2.54-6.31,3.93-9.44a4.43,4.43,0,0,1,.61-1.78c-.08.22-.38,1.34-.38,1.34l.77-1.86c-.08.07-.08.07-.16,0-.07-1,1.08-2.75,1.47-3.64l2.07-4c1.31-2.52,2.62-5,3.7-7.58s2.39-5.05,3.7-7.58c.38-.59,2.92-6.32,3.38-6.32a5.32,5.32,0,0,0-.3,1.19c.46-1.26,1.61-3.34,1.23-4.68,0,.07-.08,1.34-.23,1.34s.15-1.41-.46-1.64c-.39-.07-1,.37-1.24.52-2,1-3.54,2.9-5,4.54a128.89,128.89,0,0,0-9.78,11.74c-1.54,2.08-3.08,4.24-4.7,6.24a8.83,8.83,0,0,1-1.77,1.64,17.26,17.26,0,0,0-1.54,2.53c-2.77,4.46-5.85,8.69-8.54,13.23a33.35,33.35,0,0,0-2.78,5.5c-.46,1.11-.61,2.89-1.61,3.71-2.39,2.23-5.24-.67-5.39-3.12-.16-3.27,1.46-7,2.62-10,1.38-3.87,3.61-7.44,4.92-11.3,2.93-8.77,8-16.87,10.4-25.79.31-1.12,1.38-4.09.23-5-.93-.67-2.7.22-3.47.67-3.08,1.78-5.16,5.13-6.77,8A25.42,25.42,0,0,0,99,354a7.77,7.77,0,0,0-.77,2.23,1.59,1.59,0,0,1,.08,1.26,1.44,1.44,0,0,1-2.08.45c-1.54-.82-1.7-3.27-1.62-4.76a10.64,10.64,0,0,1,1.62-5.42c.31-.52.77-.9,1.08-1.49a8.56,8.56,0,0,1,.84-2.08,18.13,18.13,0,0,1,9.32-6.69c2.23-.67,4.62-.89,6.54.59,1.7,1.34,1.93,3.2,2.47,5.06,1.15,3.64-.46,7.21-1.47,10.85-1.07,3.79-2.92,7.36-4,11.15a63.4,63.4,0,0,1-2.93,8.1l.39-.59a7.25,7.25,0,0,0-1,2.08C109.62,371.49,111.78,368.22,114.09,365Zm-11.86,5.43c-1.31,3.35-3.23,6.76-4.77,10.11a57.91,57.91,0,0,0-2.54,7,21.54,21.54,0,0,0-.69,3.27c-.08.52.15,1.63.07,2.08a13.88,13.88,0,0,0,.31-2.68,20,20,0,0,1,.77-3,49.2,49.2,0,0,1,2.46-6.39,72.48,72.48,0,0,0,4.08-9.44v-.08Zm.7-1.78c-.31.37-.31.59-.16.67C103.16,369,103.16,368.74,102.93,368.67Zm-.08.59-.08.08A.08.08,0,0,1,102.85,369.26Zm5.62,3.35.23-.3Zm.23-.3.31-.45A1.52,1.52,0,0,0,108.7,372.31Zm12.94-16.95.3-.44-.23.29C121.64,355.29,121.64,355.29,121.64,355.36Zm0-.07c.07,0,.07-.08.07-.08A.07.07,0,0,1,121.64,355.29Zm1.69-2-.46.6Zm0,0c.85-1,1.69-1.93,2.62-2.9A31.86,31.86,0,0,0,123.33,353.28Zm3.85,16.58c1.69-3.2,3.77-6.1,5.54-9.3a47.7,47.7,0,0,0,5-12.48c-.08.15-.08.22,0-.15v-.15a29.29,29.29,0,0,1-1.7,4.53l-3,6Zm10.63-22.38c0,.08-.08.15-.08.3C137.73,347.71,137.81,347.56,137.81,347.48Zm4.23-1a.27.27,0,0,0,.08.23Z"/><path class="cls-1" d="M188.7,345.4c-.08,1.86-.69,3.72-.61,5.5a8,8,0,0,1,.3,1.27c-.07.74-.23,1.63-.38,2.37a48.5,48.5,0,0,1-1.54,5.65,88,88,0,0,1-4.31,11.23c-.62,1.33-1.7,2.67-2.08,4.08a18.19,18.19,0,0,1-.7,2.61,62.59,62.59,0,0,1-6.23,10.33c-3,4.08-8.09,10.11-14,9.14s-9.08-6.47-9.08-11.74c1.39,2.89,4.16,8.84,8.31,7.87,3.62-.89,6-5.64,7.7-8.39,2-3.42,3.93-7,5.63-10.63,2.61-5.65,4.61-11.75,6.77-17.69a93.84,93.84,0,0,0,3.23-11.08c.24-1,1.7-6.17.16-6.69-1.23-.44-3.93,2.75-4.54,3.42-2.78,2.9-5.32,6-7.86,9.14-4.08,5-7.31,10.56-10.78,15.91a144.31,144.31,0,0,0-10.85,20.66,37,37,0,0,0-2.93,10.26c-.15.67,0,1.93-.61,2.6-1.47,1.86-5.16.45-6.24-1-1.54-2.16-.16-6.39.23-8.77a77.63,77.63,0,0,1,2.08-11.07,31.31,31.31,0,0,1,1.54-3.79,13.83,13.83,0,0,1,.69-2.75.4.4,0,0,0,.08.29v-.37c-.16.08.15-1.49.15-1.56a19.55,19.55,0,0,1,1-3,28.59,28.59,0,0,0,1.23-4.46c.08-.52,2.31-7.29,3-7.14.15.08-.16.6-.08.67.31-.67.46-1.41.77-2.08l-.23.3c-.23-.08,3.93-9.52,4.31-10.26a29.6,29.6,0,0,1,2.39-5c.61-1,1.46-1.56,1.92-2.45.85-1.56,2.24-3.5,4.31-3.2a5.3,5.3,0,0,1,3.39,3,1.83,1.83,0,0,1-.38,2.09l.31-.23c.23.08-1.39,3.12-1.7,3.05a3.89,3.89,0,0,1,.46-1.19c-2.23,4.16-4.39,8.47-6.39,12.78,1.08-2.15,3.39-6.91,4.16-8.1-1.15,1.94-6.24,13.53-6.31,13.83-2.62,6.39-4.55,13.15-6.86,19.69a161.47,161.47,0,0,1,18.25-29.43,127.91,127.91,0,0,1,10.55-12.34c1.54-1.56,4.54-5.2,7-5.2,3.23,0,4.23,4,4.54,6.47A31.73,31.73,0,0,1,188.7,345.4Zm-40.58,22.45c-.61.22-.77,1.71-1.07,2.15-.39.6-.77.9-.85,1.64a7.55,7.55,0,0,0-.23,1.41,11.81,11.81,0,0,1,1.23-1.93c.31-1,.08-2.08.69-3.05Zm-1.3-.45a10.26,10.26,0,0,0,.92-2.82c.46-1.19.85-2.38,1.39-3.57.92-2.15,1.92-4.24,3-6.39.85-1.64,1.54-3.27,2.31-4.91.31-.74.77-1.41,1.08-2.08.23-.44.3-1.19.46-1.56-1.7,2.75-3.08,5.65-4.54,8.47a52,52,0,0,0-2.85,6.47,23.39,23.39,0,0,0-1.85,5.43S146.66,367.55,146.82,367.4Zm9.16-9.81-2,4.76,1.23-2.83v-.07A12.94,12.94,0,0,0,156,357.59Zm.92-12.71c.39-.37.46-.52.16-.67C156.75,344.51,156.75,344.73,156.9,344.88ZM171,380.26c.31-.44,2.93-5.95,2.93-6a6.28,6.28,0,0,0-.77,1.34v.07a7.82,7.82,0,0,0-.54,1.19l.08-.37-.47,1a17.23,17.23,0,0,1-.77,1.79l.62-1.42c-1,2.08-2.16,4.17-3.39,6.25a60.17,60.17,0,0,1-4.93,7.43,9.82,9.82,0,0,1-2.77,2.53c-.07.07-1.69.37-1.61.59.69,1.56,5.54-4.38,5.77-4.68a87.18,87.18,0,0,0,4.77-7.66c0-.07,0-.15.08-.15l.39-.74a7.64,7.64,0,0,1,.61-1.11Zm-2.62,5c-1,1.78-2.07,3.42-3.15,5A35.69,35.69,0,0,0,168.37,385.24Zm.54-1c.08-.14.16-.22.16-.37Zm3.31-6.76c.08-.07.08-.07.08-.15C172.3,377.44,172.22,377.44,172.22,377.51Zm4.39-5.2c-1.15,2.67-2.77,5.13-3.69,7.8.38-1.19,1.46-2.3,2.08-3.42a20.43,20.43,0,0,0,1.61-4.31Z"/><path class="cls-1" d="M194.94,394.83c-.85,2.3-2.77,4.24-4.47,6.09-.84.9-2.31,2.75-3.38,3.27-1.31.6-1.85-.14-1.62-1.26.54-3,3.69-4.76,5.23-7.13-.84.22-3.08,1-3.92.66-1.08-.44-.77-2.08-.31-2.82.85-1.64,2.93-2.82,4.54-3.57-.77-.44,1.93-1.56,2.54-1.41a3.1,3.1,0,0,1,2.7,2.16C196.56,392.15,195.32,393.64,194.94,394.83Z"/><path class="cls-2" d="M257.45,356.05c-.92,1.79-1.92,3.57-2.92,5.35-.54,1-.39,1.79-.85,3-.69,2-1.69,4-2.46,6.09L246.6,381.4c-1.39,3.42-3.24,6.69-4.24,10.11s-3.08,6.91-4.85,10.1c-1.85,3.42-3.46,6.84-5.93,9.89-1.31,1.71-3.08,3.94-5.16,4.83s-4.77.22-6.77-.6c-6.62-2.67-7.24-9.14-4.08-14.64a31.34,31.34,0,0,1,7.62-8.54c1.15-.82,2.16-1.86,3.23-2.75.77-.67,2.16-2.31,3.31-2.38,2.39-.15-1.3,3.27-1.69,3.71a48.78,48.78,0,0,0-6.31,9.74c-1.16,2.23-4.32,7.88-2.08,10.26,2.08,2.3,5-1,6.23-2.6,4.78-6.32,7.78-14,10.78-21.19,3-7.43,5.62-15,8.4-22.59a91.35,91.35,0,0,1-9.17,12.34c-2.15,2.3-4.92,5.27-8.31,5.64-5.78.67-10.55-6.39-10.4-11.29,0-.08-.3-1.56,0-1.86v1.34l.23-1.71c-.23.37-.07-1.86,0-2.31a34.18,34.18,0,0,1,1.47-4.46c.92-2.38,2.08-4.75,3-7.13a33.48,33.48,0,0,1,3.7-6.69c.3-.45,3.46-5.35,4-5.13,0,0-.54.89-.46.89.69-.89,1.46-2.08,2.39-3.19l-.62.59c.31-1.19,2-2.45,2.77-3.34,1.16-1.27,2.23-2.53,3.47-3.72,2.31-2.16,5.08-4.38,8.39-4.76,3.69-.52,7.08,1.56,9.08,4.54a5.58,5.58,0,0,1,.85,2.82c.08,1,.62,1.71.62,2.75.07,2.68-2.24,5.2-4.16,7s-4.7,4.16-7.24,4.83c-1.46.37-1.31-.08-.85-.67-.23.15-.46.37-.46.22.08-.37,3.08-4.83,3.39-4.75l-1.23,2.23a30.37,30.37,0,0,0,3.93-8c.38-1.34,1-3.49.38-4.83-1.31-2.6-6.24,2.67-8.31,4.9,1-1,2-2.08,3.15-3.12.93-.74,2.62-2.38,3.85-2.38,2.7,0,.69,5.73.62,5.73-.39-.08,2.23-6.1-.77-5.5-2.54.52-5.08,3.71-6.7,5.5a86.4,86.4,0,0,0-11.86,16.87c-1.62,3.05-3.08,6.24-4.46,9.36-.85,1.94-3.32,6.69-1.54,8.63,2.07,2.3,7.16-2.09,8.39-3.13-.23.15-1.16,1-1.47.9,0,0,3.62-3.5,3.86-3.8l4.08-4.31c2.92-3.19,5.62-6.54,8.31-9.88a39.65,39.65,0,0,0,3.16-4.09,5.11,5.11,0,0,0,.46-1.26c1.62-3.2,7.24.74,7.47,3.34A3.85,3.85,0,0,1,257.45,356.05ZM219,367.13a52.3,52.3,0,0,1,3.86-9.52,74.85,74.85,0,0,1,6.08-10.11c.92-1.26,1.84-2.6,2.85-3.86a16.18,16.18,0,0,1,1.77-2.53c-1.77,1.41-3.24,3.94-4.47,5.73-1.69,2.3-3.23,4.83-4.77,7.28A41.56,41.56,0,0,0,219,367.13Zm18.71-21.56a.16.16,0,0,0,.16-.15A.16.16,0,0,1,237.66,345.57Zm5.7,38.73-.07.22A.27.27,0,0,1,243.36,384.3Zm1.54-2.61a4.11,4.11,0,0,0-.77.9l-.77,1.71a6.91,6.91,0,0,1,.62-.9C244.36,382.88,244.59,382.21,244.9,381.69Zm9.78-23.26a181.38,181.38,0,0,0-8.24,19.47c.93-2.67,2.47-5.27,3.62-7.95,1.39-3.12,2.62-6.39,3.85-9.66Z"/><path class="cls-2" d="M296.8,355.16c1.77,3.34.62,7.36-.23,10.7a51.9,51.9,0,0,1-5.7,13.23c-4,7.06-10.47,16.8-19.56,17.69-5.54.52-9.85-3.79-12.32-8.1a7.68,7.68,0,0,1-1.15-1.93,8.35,8.35,0,0,0,.77,1.34,20.84,20.84,0,0,1-.85-2v.15s-1.07-3.27-1.07-3.64a21.46,21.46,0,0,1,.15-4.46c.46-3.5,1.62-6.77,2.46-10.11a42.14,42.14,0,0,1,3.93-9.59,40.23,40.23,0,0,1,2.23-3.94c.16-.37,1.85-3.34,2.24-3.27l-.47.82,2.16-3.35-.16.15c.31-.44.7-1.26.93-1.56l1.62-2.23c1.15-1.49,2.23-3,3.38-4.38a33,33,0,0,1,9.24-8.18c2.39-1.34,5.24-2.6,7.93-1.49,2.85,1.27,6.4,4.46,6.7,7.59.16,1.7-1,4.16-1.92,5.5a36.67,36.67,0,0,1-8.63,8.77c-1.61,1.26-3.85,3.12-6.08,2.75-.92-.08-3.16-1-2.31-2.16,0-.07.23-.15.54-.3h-.08c.16-.07,3-1.93,3.16-2.08a21.54,21.54,0,0,1,3-2.45s-2.15,2.15-2.31,2.38a27.9,27.9,0,0,0,6.47-7.81c.93-1.71,2.39-4.31,1.93-6.39s-2.85-1.34-4.32-.52c-3.15,1.86-5.69,5.06-7.77,7.88,2-2.68,4.46-5.72,7.47-7.51a29.2,29.2,0,0,0-4.16,3.87c-5.54,6.09-9.7,13.6-13.17,21-3.31,7.06-6.54,15.23-7.16,23-.23,2.83.08,6.62,3.77,6.92a10.8,10.8,0,0,0,4.09-.75,12.42,12.42,0,0,0,2.07-1s1.62-.89,1.24-.52a24.07,24.07,0,0,0,2.15-1.71c-.15.07-1.92,1.26-1.92,1.19.07-.67,2.08-2,2.54-2.46a27.4,27.4,0,0,0,2.46-2.67,49.89,49.89,0,0,0,4.47-6.84,60.74,60.74,0,0,0,6.08-15.16,24.69,24.69,0,0,0,1-6.77,9.28,9.28,0,0,1-.15-1.48C292.1,350.18,296.11,353.9,296.8,355.16ZM268.62,353c2.85-4.46,5.7-9.06,9.32-13,.92-1,2-2.16,3.15-3.2-1.08.89-2,1.93-2.92,2.83A105.09,105.09,0,0,0,268,352.78,67.35,67.35,0,0,0,260.53,368a53.92,53.92,0,0,0-2.69,10.48A56.53,56.53,0,0,1,261,367.87,77.61,77.61,0,0,1,268.62,353Zm4.54,3.05.23-.3Zm2.08-3.49a.22.22,0,0,1,.08-.15l-1.7,2.82,1.54-2.45.31-.52-.07.08-.08.07.08-.07C275.32,352.41,275.24,352.48,275.24,352.56Zm.69-1.19-.53.89.07-.07.08-.08Zm12.86-15.09.31-.15A.37.37,0,0,1,288.79,336.28Zm1.47-.52c1.92-.59,2.46.52,2.31,2,.07-1-.24-1.93-1.31-2.08A4.4,4.4,0,0,0,290.26,335.76Zm.84,6.47.39-.75A2.16,2.16,0,0,1,291.1,342.23Zm1.47-4.24a8.23,8.23,0,0,1-.85,2.82A15.26,15.26,0,0,0,292.57,338Z"/><path class="cls-1" d="M168.13,430.37q0,5.38-2.83,8.15t-8.3,2.76h-5.13V419.86h5.79c3.41,0,6,.9,7.8,2.68S168.13,426.94,168.13,430.37Zm-1.63.06c0-3.07-.77-5.38-2.33-6.93s-3.85-2.32-6.87-2.32h-3.94V440h3.55Q166.51,440,166.5,430.43Z"/><path class="cls-1" d="M186.1,441.28H171.22v-1.11l12.54-18.9h-12v-1.41h14V421L173.2,439.87h12.9Z"/></g><g id="gradient_arrow" data-name="gradient arrow"><polygon class="cls-3" points="52.44 82.52 231.48 202.52 55.32 319.64 125.4 319.64 301.08 202.04 122.04 82.52 52.44 82.52"/></g><g id="orange_arrow_down" data-name="orange arrow down"><polygon class="cls-4" points="206.52 199.64 129.72 251.96 60.6 251.96 173.4 177.08 206.52 199.64"/></g><g id="orange_arrow_up" data-name="orange arrow up"><polygon class="cls-4" points="260.76 163.16 228.7 142.04 238.68 134.36 55.32 12.92 126.36 12.92 307.32 134.36 260.76 163.16"/></g></svg>