<svg id="text" xmlns="http://www.w3.org/2000/svg" viewBox="0 0 194.96 76.49"><defs><style>.cls-1{fill:#1d1d1b;}.cls-2{fill:#ec606f;}</style></defs><path class="cls-1" d="M14.48,45.2c-1.68-.13-2.79-.52-3.31-1.2a4,4,0,0,1-.79-2.53,16.94,16.94,0,0,1,.62-4.1c.41-1.6,1-3.3,1.62-5.11s1.4-3.61,2.2-5.39L13.17,27l-2.29.2c-.78.08-1.41.17-1.88.26a3.18,3.18,0,0,1,1.12-2.24,6.25,6.25,0,0,1,2.53-1.17A15.93,15.93,0,0,1,16,23.65q1.24-3.31,2.55-6.47c.88-2.11,1.76-4,2.65-5.78a5.54,5.54,0,0,0-.67-.07q-.37,0-1.05,0a13.36,13.36,0,0,0-4.51.6,3.92,3.92,0,0,0-2.19,1.71,5.6,5.6,0,0,0-.6,2.71,8.53,8.53,0,0,0,.24,2.1,13.72,13.72,0,0,0,.72,2A5.49,5.49,0,0,1,10,19.06,3.66,3.66,0,0,1,9,16.46a5.86,5.86,0,0,1,1.83-4.24,12.74,12.74,0,0,1,5-2.9,22,22,0,0,1,7-1.06,39.08,39.08,0,0,1,5.06.33,38.44,38.44,0,0,0,4.72.32,15.34,15.34,0,0,0,2.29-.16c.73-.11,1.58-.29,2.53-.53a18.06,18.06,0,0,1-3.74,3.27,5.76,5.76,0,0,1-2.84.83,18.86,18.86,0,0,1-3-.3c-1.21-.2-2.51-.35-3.91-.44-.42,1-.86,2.12-1.34,3.41s-1,2.67-1.45,4.14-1,3-1.51,4.56c1.66.12,3.15.26,4.49.42s2.81.26,4.44.32a6.45,6.45,0,0,1-1.17,1.17,3.74,3.74,0,0,1-1.58.62,19.75,19.75,0,0,1-2.67.28c-1.13.06-2.6.11-4.41.14-.26.92-.53,1.86-.81,2.81s-.54,1.76-.74,2.44-.34,1.09-.41,1.24A69.11,69.11,0,0,0,15,40.34,28.38,28.38,0,0,0,14.48,45.2Z"/><path class="cls-1" d="M30.18,45.24a3.93,3.93,0,0,1,1.33-2.87,6.3,6.3,0,0,1,3-1.18,26.58,26.58,0,0,1,3.91-.27A30,30,0,0,0,40,36.7c.53-1.64,1-3.4,1.53-5.27s1-3.78,1.43-5.74.9-3.83,1.31-5.66.81-3.49,1.19-5,.75-2.74,1.1-3.73c-1.62,0-3.06.1-4.32.19s-2.44.21-3.55.37-2.26.33-3.44.55a4.63,4.63,0,0,1,3-3.32,21.38,21.38,0,0,1,7.58-1q2.54,0,5.25.18t5,.42c1.53.15,2.72.29,3.58.41a7.21,7.21,0,0,1-3.05,1.82,10.88,10.88,0,0,1-2.48.35H51.39c-.82,0-1.6,0-2.37,0-.22,1-.47,2.32-.74,3.83s-.57,3.11-.9,4.83-.66,3.44-1,5.16-.64,3.32-.95,4.81-.61,2.73-.86,3.71A30.61,30.61,0,0,1,43.11,38a8.86,8.86,0,0,1-2,3c1.69.12,3.39.27,5.11.46s3.61.3,5.67.37A9,9,0,0,1,48.31,44a12.11,12.11,0,0,1-2.82.44c-2.13,0-3.9,0-5.32,0s-2.64,0-3.69.09-2.06.13-3,.25Z"/><path class="cls-1" d="M57.42,45.2q.72-2.31,1.62-5t2.1-6.45q1.2-3.71,2.77-8.82t3.62-12.07c0-.09.1-.32.2-.69a4.61,4.61,0,0,0,.14-1.1.79.79,0,0,0-.12-.51.68.68,0,0,0-.5-.14,2.93,2.93,0,0,0-1.93.79,8.24,8.24,0,0,0-1.67,1.95,10.61,10.61,0,0,0-1.15,2.44,7.61,7.61,0,0,0-.4,2.28A5.21,5.21,0,0,0,62.57,20a4.19,4.19,0,0,1-3-.85A2.92,2.92,0,0,1,58.76,17a5.86,5.86,0,0,1,1-3.15A12.63,12.63,0,0,1,62.31,11a14.85,14.85,0,0,1,3.25-2.12A7.18,7.18,0,0,1,68.63,8a3.59,3.59,0,0,1,2.75,1.18,9,9,0,0,1,1.76,3.2A33.42,33.42,0,0,1,74.31,17c.32,1.72.62,3.54.91,5.44q.57,3.68.9,5.87c.22,1.46.41,2.62.55,3.48s.27,1.58.38,2.16.23,1.24.36,2c.38-1.47.77-3,1.17-4.67s.8-3.31,1.22-5,.81-3.34,1.21-4.95.81-3.12,1.22-4.54.82-2.66,1.22-3.75a15.36,15.36,0,0,1,1.16-2.6A7.31,7.31,0,0,1,86,8.84,3.57,3.57,0,0,1,88.48,8q-.81,2.07-1.84,5.13c-.68,2-1.37,4.26-2.07,6.63s-1.38,4.81-2,7.28-1.23,4.87-1.74,7.18-.92,4.43-1.22,6.34a31.09,31.09,0,0,0-.45,4.65,4.82,4.82,0,0,1-2.89-.81,5.31,5.31,0,0,1-1.69-3.15c-.13-.52-.32-1.4-.57-2.63s-.55-2.68-.86-4.35-.66-3.43-1-5.27-.68-3.65-1-5.41-.6-3.35-.86-4.75-.46-2.46-.62-3.2Q67.49,23.19,66,28.41t-2.67,8.52a45.68,45.68,0,0,1-2,5.09,7.19,7.19,0,0,1-1.82,2.49A3.22,3.22,0,0,1,57.42,45.2Z"/><path class="cls-1" d="M95.49,45.2a11.35,11.35,0,0,1-3.17-.44,5,5,0,0,1-2.6-1.86,28.57,28.57,0,0,1,.69-3.23q.56-2.12,1.36-4.81t1.72-5.55q.9-2.85,1.79-5.46t1.57-4.56c.46-1.3.8-2.24,1-2.83.09-.24.25-.61.47-1.1a11.34,11.34,0,0,1,.86-1.52,5.72,5.72,0,0,1,1.22-1.32,2.43,2.43,0,0,1,1.5-.53,3.48,3.48,0,0,1,1.82.65c-1,2.15-2,4.54-3,7.16s-2,5.33-2.86,8.11-1.73,5.48-2.48,8.1-1.36,5-1.84,7.21a4.64,4.64,0,0,0,1.08.2,12.14,12.14,0,0,0,1.31.07A12.73,12.73,0,0,0,101.89,42a19.76,19.76,0,0,0,5.17-3.87,27.78,27.78,0,0,0,4.13-5.43,28.87,28.87,0,0,0,2.72-6.19,21.37,21.37,0,0,0,1-6.08,12.21,12.21,0,0,0-1.31-6.06A8,8,0,0,0,110,11a12.19,12.19,0,0,0-5.25-1.08A13.82,13.82,0,0,0,99.12,11,9.58,9.58,0,0,0,95.23,14a6.88,6.88,0,0,0-1.41,4.26,6,6,0,0,0,.1,1.08,4.57,4.57,0,0,0,.33,1.13,4.12,4.12,0,0,1-2.93-.85,2.8,2.8,0,0,1-.88-2.1,5.55,5.55,0,0,1,1.21-3.27A12.75,12.75,0,0,1,95,11.14a19.33,19.33,0,0,1,5-2.25,21.61,21.61,0,0,1,6.2-.86,14.26,14.26,0,0,1,7.5,1.73,10,10,0,0,1,4.07,4.65,16.14,16.14,0,0,1,1.27,6.52,22.11,22.11,0,0,1-1.31,7.57,25.33,25.33,0,0,1-3.63,6.66,26.5,26.5,0,0,1-5.34,5.29,24.81,24.81,0,0,1-6.44,3.5A20,20,0,0,1,95.49,45.2Z"/><path class="cls-1" d="M120.11,45.24a2.72,2.72,0,0,1-1-.89,2,2,0,0,1-.34-1.13,5.79,5.79,0,0,1,.43-2,6.64,6.64,0,0,1,1.12-1.91,2,2,0,0,1,1.46-.81A1.57,1.57,0,0,1,123.35,40a12,12,0,0,0-1.76,2.4C121.18,43.16,120.68,44.11,120.11,45.24Z"/><path class="cls-2" d="M143.75,41.48a9.24,9.24,0,0,1-4.91-1.36,9.53,9.53,0,0,1-3.58-4,13.5,13.5,0,0,1-1.34-6.24,23.61,23.61,0,0,1,1.15-7.18A32.11,32.11,0,0,1,142.8,9.93a22.18,22.18,0,0,1,5.46-4.07,12.44,12.44,0,0,1,5.8-1.5,6.39,6.39,0,0,1,3.33.76,4.39,4.39,0,0,1,1.79,2,6.45,6.45,0,0,1,.55,2.67,9.38,9.38,0,0,1-.59,3.22,7.57,7.57,0,0,1-1.63,2.67,3.08,3.08,0,0,1-2.26,1.06,1.88,1.88,0,0,1-1.05-.32,3.48,3.48,0,0,1-1-1.2,6.9,6.9,0,0,0,1.6-1.61,13.83,13.83,0,0,0,1.55-2.56,5.86,5.86,0,0,0,.67-2.51,2.13,2.13,0,0,0-.6-1.54,2.65,2.65,0,0,0-2-.62,7.83,7.83,0,0,0-4.41,1.54,20.37,20.37,0,0,0-4.32,4.1,34.78,34.78,0,0,0-3.69,5.71,34.15,34.15,0,0,0-2.6,6.45,22.26,22.26,0,0,0-1,6.24,10.06,10.06,0,0,0,1.89,6.51,5.62,5.62,0,0,0,4.5,2.33,6,6,0,0,0,3.61-1.2,12,12,0,0,0,2.91-3.15,19,19,0,0,0,2-4.26,20.42,20.42,0,0,0,.95-4.51,24.27,24.27,0,0,0-2.46-.35c-.84-.08-1.72-.12-2.65-.12-.51,0-1,0-1.52,0s-1,0-1.62.07a4.4,4.4,0,0,1,1.35-2.38,3.8,3.8,0,0,1,2.46-.75,10,10,0,0,1,2.89.43c1,.29,1.95.61,3,1s2,.61,2.93.83l-.48,1.42c-.57,1.69-1,3.1-1.4,4.22s-.65,2.07-.84,2.85a15.2,15.2,0,0,0-.38,2.12,17.73,17.73,0,0,0-.1,2c0,.61,0,1.25.05,1.91s.06,1.46.1,2.42a3.92,3.92,0,0,1-2.13-.81,2.87,2.87,0,0,1-.9-1.45,6.11,6.11,0,0,1-.22-1.61v-.46a2.31,2.31,0,0,1,0-.46,14.47,14.47,0,0,1-3.84,3.24A9.48,9.48,0,0,1,143.75,41.48Z"/><path class="cls-2" d="M171.85,41.48a9.54,9.54,0,0,1-5.06-1.4,10,10,0,0,1-3.62-4,13.25,13.25,0,0,1-1.34-6.17A23.43,23.43,0,0,1,163,22.76a31.81,31.81,0,0,1,3.14-6.91A30,30,0,0,1,170.8,10a22.31,22.31,0,0,1,5.7-4.1,13.9,13.9,0,0,1,6.23-1.5,7.41,7.41,0,0,1,1.41.19A3.59,3.59,0,0,1,186,5.65l-.64-.07-.74,0a9.73,9.73,0,0,0-5,1.5,20.66,20.66,0,0,0-4.82,4,30.75,30.75,0,0,0-4.08,5.73,33.78,33.78,0,0,0-2.84,6.65,23.14,23.14,0,0,0-1.05,6.73,14.62,14.62,0,0,0,.67,4.46A7.13,7.13,0,0,0,169.61,38a5.77,5.77,0,0,0,3.91,1.27,8.72,8.72,0,0,0,4.91-1.52,16.18,16.18,0,0,0,4.15-4.08,28.32,28.32,0,0,0,3.2-5.71,36,36,0,0,0,2.05-6.49,30.22,30.22,0,0,0,.72-6.38,25.11,25.11,0,0,0-.19-2.88,10.1,10.1,0,0,0-.65-2.64c-.3-.74-.74-1.11-1.31-1.11a2.61,2.61,0,0,0-1.76,1A14,14,0,0,0,182.77,12a24.45,24.45,0,0,0-1.59,3.2,18,18,0,0,0-1,3,4.44,4.44,0,0,1-2.31-1,2.22,2.22,0,0,1-.7-1.65,5.6,5.6,0,0,1,.91-2.77,14.21,14.21,0,0,1,2.36-2.92,15.7,15.7,0,0,1,3.06-2.33,6,6,0,0,1,3-.92,3,3,0,0,1,2.31,1,6.78,6.78,0,0,1,1.36,2.56,18.12,18.12,0,0,1,.67,3.34,32.88,32.88,0,0,1,.19,3.29,29.43,29.43,0,0,1-1.19,8.59,25.68,25.68,0,0,1-3.22,6.88,24.06,24.06,0,0,1-4.54,5.07,19.48,19.48,0,0,1-5.15,3.13A13.57,13.57,0,0,1,171.85,41.48Z"/><path class="cls-1" d="M91.09,61.61a6.79,6.79,0,0,1-.75,3.19A5.11,5.11,0,0,1,88.26,67a6.24,6.24,0,0,1-3.08.73H82.9L85,57.59h2.11a3.92,3.92,0,0,1,2.94,1A4.1,4.1,0,0,1,91.09,61.61Zm-5.93,5.45a5.43,5.43,0,0,0,2.73-.65,4.36,4.36,0,0,0,1.8-1.9,6.1,6.1,0,0,0,.64-2.85c0-2.29-1.09-3.44-3.29-3.44H85.62l-1.9,8.84Z"/><path class="cls-1" d="M97.83,67.69H91.44l.15-.64L99,58.24H93.7l.15-.65H100l-.13.61L92.47,67H98Z"/></svg>